<svg width="512" height="512" viewBox="0 0 512 512" fill="none" xmlns="http://www.w3.org/2000/svg">
<g clip-path="url(#clip0_502_73)">
<path fill-rule="evenodd" clip-rule="evenodd" d="M265.774 48.0502L401.985 129.436V272.518L265.774 353.97L168.481 297.04V452.47L129.563 494.143V129.436L185.021 96.4566L265.774 48.0502ZM168.481 151.28V242.216L265.774 297.04L363.068 242.216V151.28L265.774 96.4566L168.481 151.28Z" fill="#68A6B1"/>
<path d="M363.068 151.286L401.985 129.502V201.483L363.068 151.286Z" fill="#8AC03F"/>
<path d="M363.068 242.21L401.985 193.907V272.518L363.068 242.21Z" fill="#5E8002"/>
<path d="M401.985 193.907L363.068 152.233V195.801L401.985 193.907Z" fill="#72A019"/>
<path d="M363.068 193.907H401.985L363.068 242.21V193.907Z" fill="#618E02"/>
<path d="M265.774 96.3532L194.75 90.6705L265.774 48.0502L265.774 96.3532Z" fill="#06637A"/>
<path d="M194.75 90.6705L168.48 151.287L216.154 124.767L194.75 90.6705Z" fill="#2382A6"/>
<path d="M216.154 124.767L194.75 90.6704L265.774 96.3537L216.154 124.767Z" fill="#027491"/>
<path d="M363.068 242.21L402.123 272.75L333.642 313.613L363.068 242.21Z" fill="#730A4B"/>
<path d="M340.274 309.69L363.068 242.21L311.725 270.862L340.274 309.69Z" fill="#8E1B5E"/>
<path d="M315.841 268.444L340.239 309.582L265.935 297.025L315.841 268.444Z" fill="#9B1E63"/>
<path d="M265.774 297.143L340.69 309.455L265.774 353.97L265.774 297.143Z" fill="#BF3184"/>
<path d="M265.449 96.8257L265.449 48.0499L331.934 86.8818L265.449 96.8257Z" fill="#D26105"/>
<path d="M331.934 86.8821L265.449 96.8261L314.683 124.686L331.934 86.8821Z" fill="#DB761A"/>
<path d="M310.634 122.508L331.934 86.8819L363.068 151.286L310.634 122.508Z" fill="#E98517"/>
<path d="M363.068 151.286L331.934 86.8821L401.986 129.503L363.068 151.286Z" fill="#EB8E1B"/>
<path d="M266.013 297.143L266.013 353.97L195.723 313.244L266.013 297.143Z" fill="#F0B12F"/>
<path d="M220.046 270.624L195.723 313.244L168.481 242.21L220.046 270.624Z" fill="#E79400"/>
<path d="M168.479 242.213L195.723 313.244L168.479 297.143L168.479 242.213Z" fill="#D68B00"/>
<path d="M195.723 313.244L265.774 297.143L216.223 268.743L195.723 313.244Z" fill="#E8A61F"/>
<path d="M168.481 242.21L129.563 282.936V188.224L168.481 242.21Z" fill="#97211E" fill-opacity="0.9"/>
<path d="M168.481 151.286L129.563 197.695V129.503L168.481 151.286Z" fill="#E86B6C"/>
<path d="M129.563 196.189L168.481 242.21V196.189H129.563Z" fill="#C43637"/>
<path d="M168.481 197.695L129.563 196.748L168.481 151.286V197.695Z" fill="#DA494A"/>
<path d="M129.563 280.094L168.481 242.21L168.481 329.121L129.563 280.094Z" fill="#086051"/>
<path d="M129.563 367.935L168.481 320.683V381.436L129.563 367.935Z" fill="#0A806A"/>
<path d="M168.481 320.683L129.563 279.337V322.024L168.481 320.683Z" fill="#0F695A"/>
<path d="M129.563 320.683H168.481L129.563 368.779V320.683Z" fill="#03735F"/>
<path d="M168.481 460.994L129.563 495.091V415.866L168.481 460.994Z" fill="#C98486"/>
<path d="M168.481 380.483L129.563 423.557V368.177L168.481 380.483Z" fill="#E2B5B7"/>
<path d="M129.563 423.557L168.481 461.247V422.334L129.563 423.557Z" fill="#DBB6B5"/>
<path d="M168.481 423.557H129.563L168.481 379.714V423.557Z" fill="#D9A2A3"/>
<path fill-rule="evenodd" clip-rule="evenodd" d="M265.774 48.0502L401.985 129.436V272.517L265.774 353.97L168.481 297.039V452.47L129.563 494.143V129.436L185.021 96.4566L265.774 48.0502ZM168.481 151.28V242.216L265.774 297.039L363.068 242.216V151.28L265.774 96.4566L168.481 151.28Z" fill="#68A6B1"/>
<path d="M310.634 122.508L331.934 86.8818L363.068 151.286L310.634 122.508Z" fill="#E98517"/>
<path d="M363.068 151.286L331.934 86.8822L401.986 129.503L363.068 151.286Z" fill="#EB8E1B"/>
<path d="M194.749 90.6704L168.48 151.287L216.154 124.767L194.749 90.6704Z" fill="#2382A6"/>
<path d="M363.068 151.286L401.985 129.502V201.483L363.068 151.286Z" fill="#8AC03F"/>
<path d="M168.481 242.21L129.563 282.936V188.224L168.481 242.21Z" fill="#97211E" fill-opacity="0.9"/>
<path d="M168.481 151.286L129.563 197.695V129.503L168.481 151.286Z" fill="#E86B6C"/>
<path d="M129.563 196.189L168.481 242.21V196.189H129.563Z" fill="#C43637"/>
<path d="M168.481 197.695L129.563 196.748L168.481 151.286V197.695Z" fill="#DA494A"/>
<path d="M401.985 193.906L363.068 152.233V195.801L401.985 193.906Z" fill="#72A019"/>
<path d="M363.068 193.907H401.985L363.068 242.21V193.907Z" fill="#618E02"/>
<path d="M363.068 242.21L401.985 193.907V272.518L363.068 242.21Z" fill="#5E8002"/>
<path d="M266.013 297.143L266.013 353.97L195.722 313.244L266.013 297.143Z" fill="#F0B12F"/>
<path d="M220.046 270.624L195.723 313.244L168.481 242.21L220.046 270.624Z" fill="#E79400"/>
<path d="M168.479 242.213L195.723 313.244L168.479 297.143L168.479 242.213Z" fill="#D68B00"/>
<path d="M195.723 313.244L265.774 297.143L216.223 268.743L195.723 313.244Z" fill="#E8A61F"/>
<path d="M363.067 242.21L402.123 272.749L333.642 313.613L363.067 242.21Z" fill="#730A4B"/>
<path d="M340.274 309.69L363.068 242.21L311.725 270.862L340.274 309.69Z" fill="#8E1B5E"/>
<path d="M315.841 268.444L340.239 309.582L265.935 297.025L315.841 268.444Z" fill="#9B1E63"/>
<path d="M265.774 297.143L340.69 309.455L265.774 353.97L265.774 297.143Z" fill="#BF3184"/>
<path d="M129.563 280.094L168.481 242.209L168.481 329.121L129.563 280.094Z" fill="#086051"/>
<path d="M129.563 367.935L168.481 320.683V381.436L129.563 367.935Z" fill="#0A806A"/>
<path d="M168.481 320.683L129.563 279.337V322.024L168.481 320.683Z" fill="#0F695A"/>
<path d="M129.563 320.683H168.481L129.563 368.779V320.683Z" fill="#03735F"/>
<path d="M168.481 460.994L129.563 495.091V415.866L168.481 460.994Z" fill="#C98486"/>
<path d="M168.481 380.483L129.563 423.557V368.177L168.481 380.483Z" fill="#E2B5B7"/>
<path d="M129.563 423.557L168.481 461.247V422.334L129.563 423.557Z" fill="#DBB6B5"/>
<path d="M168.481 423.557H129.563L168.481 379.714V423.557Z" fill="#D9A2A3"/>
</g>
<defs>
<clipPath id="clip0_502_73">
<rect width="512.401" height="512.401" fill="white" transform="translate(-0.400696 -0.400696)"/>
</clipPath>
</defs>
</svg>
